<svg width="250" height="222" viewBox="0 0 250 222" fill="none" xmlns="http://www.w3.org/2000/svg">
<path d="M114.647 209.118L219.87 124.314C228.264 117.55 234.263 109.282 237.869 99.5095C241.413 89.7308 242.454 79.7456 240.994 69.5538C239.54 59.3004 235.452 50.0728 228.73 41.871C221.842 33.4644 213.601 27.4992 204.007 23.9751C194.358 20.3828 184.469 19.3201 174.339 20.787C164.147 22.2473 154.796 26.3223 146.286 33.0119L132.405 43.8614L121.146 30.3105C114.19 21.959 105.919 15.9904 96.3316 12.4047C86.7444 8.81903 76.8857 7.75966 66.7555 9.22657C56.5703 10.6252 47.2195 14.7002 38.703 21.4514C30.3912 28.0377 24.4358 36.1861 20.8369 45.8965C17.2446 55.5454 16.172 65.5273 17.6191 75.8424C19.0045 86.1508 23.0794 95.5016 29.8439 103.895L114.647 209.118Z" fill="url(#paint0_linear_5_22)"/>
<defs>
<linearGradient id="paint0_linear_5_22" x1="223.103" y1="43.161" x2="112.064" y2="202.863" gradientUnits="userSpaceOnUse">
<stop stop-color="#84259D"/>
<stop offset="1" stop-color="#D357FF"/>
</linearGradient>
</defs>
</svg>
